<?xml version="1.0" standalone="no"?>
<!DOCTYPE svg PUBLIC "-//W3C//DTD SVG 20010904//EN"
 "http://www.w3.org/TR/2001/REC-SVG-20010904/DTD/svg10.dtd">
<svg version="1.0" xmlns="http://www.w3.org/2000/svg"
 width="295.000000pt" height="277.000000pt" viewBox="0 0 295.000000 277.000000"
 preserveAspectRatio="xMidYMid meet">

<g transform="translate(0.000000,277.000000) scale(0.100000,-0.100000)"
fill="#6610F2" stroke="none">
<path d="M2681 2743 c-7 -15 -32 -57 -56 -93 -198 -297 -581 -555 -956 -644
-129 -31 -223 -43 -459 -56 -400 -23 -596 -74 -796 -206 -406 -269 -537 -844
-272 -1191 46 -60 148 -133 185 -133 84 0 776 177 959 246 424 158 833 476
1075 835 58 87 169 300 169 326 0 6 4 14 9 17 13 8 -14 -103 -50 -209 -91
-267 -286 -558 -525 -784 -248 -235 -481 -370 -829 -482 -472 -152 -565 -183
-561 -186 2 -2 61 1 132 6 86 7 245 7 479 0 607 -19 900 16 1163 137 295 135
488 399 569 780 25 121 27 145 27 374 0 274 -14 398 -80 694 -31 140 -118 451
-156 559 l-14 39 -13 -29z"/>
<path d="M132 313 c-35 -7 -89 -64 -101 -108 -15 -55 1 -106 44 -144 42 -36
73 -46 123 -37 138 22 166 207 42 273 -42 22 -60 25 -108 16z"/>
</g>
</svg>
